<svg width="54" height="54" viewBox="0 0 54 54" fill="none" xmlns="http://www.w3.org/2000/svg">
<rect width="54" height="54" rx="27" fill="#BABABA"/>
<path d="M36 26.7501H18C17.04 26.7501 16.25 25.9601 16.25 25.0001V21.6801C16.25 21.0001 16.72 20.3101 17.35 20.0601L26.35 16.4602C26.73 16.3102 27.27 16.3102 27.65 16.4602L36.65 20.0601C37.28 20.3101 37.75 21.0101 37.75 21.6801V25.0001C37.75 25.9601 36.96 26.7501 36 26.7501ZM27 17.8402C26.96 17.8402 26.92 17.8401 26.9 17.8501L17.91 21.4501C17.85 21.4801 17.75 21.6101 17.75 21.6801V25.0001C17.75 25.1401 17.86 25.2501 18 25.2501H36C36.14 25.2501 36.25 25.1401 36.25 25.0001V21.6801C36.25 21.6101 36.16 21.4801 36.09 21.4501L27.09 17.8501C27.07 17.8401 27.04 17.8402 27 17.8402Z" fill="#292D32"/>
<path d="M37 37.75H17C16.59 37.75 16.25 37.41 16.25 37V34C16.25 33.04 17.04 32.25 18 32.25H36C36.96 32.25 37.75 33.04 37.75 34V37C37.75 37.41 37.41 37.75 37 37.75ZM17.75 36.25H36.25V34C36.25 33.86 36.14 33.75 36 33.75H18C17.86 33.75 17.75 33.86 17.75 34V36.25Z" fill="#292D32"/>
<path d="M19 33.75C18.59 33.75 18.25 33.41 18.25 33V26C18.25 25.59 18.59 25.25 19 25.25C19.41 25.25 19.75 25.59 19.75 26V33C19.75 33.41 19.41 33.75 19 33.75Z" fill="#292D32"/>
<path d="M23 33.75C22.59 33.75 22.25 33.41 22.25 33V26C22.25 25.59 22.59 25.25 23 25.25C23.41 25.25 23.75 25.59 23.75 26V33C23.75 33.41 23.41 33.75 23 33.75Z" fill="#292D32"/>
<path d="M27 33.75C26.59 33.75 26.25 33.41 26.25 33V26C26.25 25.59 26.59 25.25 27 25.25C27.41 25.25 27.75 25.59 27.75 26V33C27.75 33.41 27.41 33.75 27 33.75Z" fill="#292D32"/>
<path d="M31 33.75C30.59 33.75 30.25 33.41 30.25 33V26C30.25 25.59 30.59 25.25 31 25.25C31.41 25.25 31.75 25.59 31.75 26V33C31.75 33.41 31.41 33.75 31 33.75Z" fill="#292D32"/>
<path d="M35 33.75C34.59 33.75 34.25 33.41 34.25 33V26C34.25 25.59 34.59 25.25 35 25.25C35.41 25.25 35.75 25.59 35.75 26V33C35.75 33.41 35.41 33.75 35 33.75Z" fill="#292D32"/>
<path d="M38 37.75H16C15.59 37.75 15.25 37.41 15.25 37C15.25 36.59 15.59 36.25 16 36.25H38C38.41 36.25 38.75 36.59 38.75 37C38.75 37.41 38.41 37.75 38 37.75Z" fill="#292D32"/>
<path d="M27 24.25C25.76 24.25 24.75 23.24 24.75 22C24.75 20.76 25.76 19.75 27 19.75C28.24 19.75 29.25 20.76 29.25 22C29.25 23.24 28.24 24.25 27 24.25ZM27 21.25C26.59 21.25 26.25 21.59 26.25 22C26.25 22.41 26.59 22.75 27 22.75C27.41 22.75 27.75 22.41 27.75 22C27.75 21.59 27.41 21.25 27 21.25Z" fill="#292D32"/>
</svg>
