<svg width="62" height="62" viewBox="0 0 62 62" fill="none" xmlns="http://www.w3.org/2000/svg">
<path d="M32.7565 10.2293C33.9965 12.0635 34.7198 14.2593 34.7198 16.636C34.694 22.836 29.8115 27.8735 23.6631 28.0802C23.4048 28.0543 23.0948 28.0543 22.8106 28.0802C16.6623 27.8735 11.7798 22.836 11.7798 16.636C11.7798 10.3068 16.8948 5.16602 23.2498 5.16602" stroke="#F2F2F2" stroke-width="3" stroke-linecap="round" stroke-linejoin="round"/>
<path d="M42.3925 10.334C47.4041 10.334 51.4341 14.3898 51.4341 19.3757C51.4341 24.2582 47.5591 28.2365 42.7283 28.4173C42.5216 28.3915 42.2891 28.3915 42.0566 28.4173" stroke="#F2F2F2" stroke-width="3" stroke-linecap="round" stroke-linejoin="round"/>
<path d="M10.7469 37.614C4.49519 41.799 4.49519 48.619 10.7469 52.7782C17.851 57.5315 29.5019 57.5315 36.606 52.7782C42.8577 48.5932 42.8577 41.7732 36.606 37.614C29.5277 32.8865 17.8769 32.8865 10.7469 37.614Z" stroke="#F2F2F2" stroke-width="3" stroke-linecap="round" stroke-linejoin="round"/>
<path d="M47.3784 51.666C49.2384 51.2785 50.9951 50.5293 52.4417 49.4185C56.4717 46.396 56.4717 41.4102 52.4417 38.3877C51.0209 37.3027 49.2901 36.5793 47.4559 36.166" stroke="#F2F2F2" stroke-width="3" stroke-linecap="round" stroke-linejoin="round"/>
</svg>
