<svg width="62" height="62" viewBox="0 0 62 62" fill="none" xmlns="http://www.w3.org/2000/svg">
<path d="M5.1665 15.4993C5.1665 9.79018 9.79067 5.16602 15.4998 5.16602H38.7498V30.9993C38.7498 33.841 36.4248 36.166 33.5832 36.166H5.1665V28.3902" stroke="white" stroke-width="3" stroke-linecap="round" stroke-linejoin="round"/>
<path d="M49.0832 51.666H46.4998C46.4998 48.8243 44.1748 46.4993 41.3332 46.4993C38.4915 46.4993 36.1665 48.8243 36.1665 51.666H25.8332C25.8332 48.8243 23.5082 46.4993 20.6665 46.4993C17.8248 46.4993 15.4998 48.8243 15.4998 51.666H12.9165C8.62817 51.666 5.1665 48.2043 5.1665 43.916V36.166H33.5832C36.4248 36.166 38.7498 33.841 38.7498 30.9993V12.916H43.5032C45.3632 12.916 47.0681 13.9235 47.9981 15.5252L52.4157 23.2493H49.0832C47.6623 23.2493 46.4998 24.4118 46.4998 25.8327V33.5827C46.4998 35.0035 47.6623 36.166 49.0832 36.166H56.8332V43.916" stroke="white" stroke-width="3" stroke-linecap="round" stroke-linejoin="round"/>
<path d="M20.6667 56.8333C23.5201 56.8333 25.8333 54.5201 25.8333 51.6667C25.8333 48.8132 23.5201 46.5 20.6667 46.5C17.8132 46.5 15.5 48.8132 15.5 51.6667C15.5 54.5201 17.8132 56.8333 20.6667 56.8333Z" stroke="white" stroke-width="3" stroke-linecap="round" stroke-linejoin="round"/>
<path d="M41.3332 56.8333C44.1866 56.8333 46.4998 54.5201 46.4998 51.6667C46.4998 48.8132 44.1866 46.5 41.3332 46.5C38.4797 46.5 36.1665 48.8132 36.1665 51.6667C36.1665 54.5201 38.4797 56.8333 41.3332 56.8333Z" stroke="white" stroke-width="3" stroke-linecap="round" stroke-linejoin="round"/>
<path d="M56.8333 31V36.1667H49.0833C47.6625 36.1667 46.5 35.0042 46.5 33.5833V25.8333C46.5 24.4125 47.6625 23.25 49.0833 23.25H52.4159L56.8333 31Z" stroke="white" stroke-width="3" stroke-linecap="round" stroke-linejoin="round"/>
</svg>
