<svg width="62" height="62" viewBox="0 0 62 62" fill="none" xmlns="http://www.w3.org/2000/svg">
<path d="M5.1665 28.416C5.1665 23.2493 7.74984 20.666 12.9165 20.666H25.8332V49.0827C25.8332 54.2494 28.4165 56.8327 33.5832 56.8327H12.9165C7.74984 56.8327 5.1665 54.2494 5.1665 49.0827V38.7494" stroke="#F1F1F1" stroke-width="3" stroke-miterlimit="10" stroke-linecap="round" stroke-linejoin="round"/>
<path d="M26.1173 10.334C25.9106 11.109 25.8332 11.9615 25.8332 12.9173V20.6673H12.9165V15.5007C12.9165 12.659 15.2415 10.334 18.0832 10.334H26.1173Z" stroke="#F1F1F1" stroke-width="3" stroke-miterlimit="10" stroke-linecap="round" stroke-linejoin="round"/>
<path d="M36.1665 20.666V33.5827" stroke="#F1F1F1" stroke-width="3" stroke-miterlimit="10" stroke-linecap="round" stroke-linejoin="round"/>
<path d="M46.5 20.666V33.5827" stroke="#F1F1F1" stroke-width="3" stroke-miterlimit="10" stroke-linecap="round" stroke-linejoin="round"/>
<path d="M43.9165 43.916H38.7498C37.329 43.916 36.1665 45.0785 36.1665 46.4993V56.8327H46.4998V46.4993C46.4998 45.0785 45.3373 43.916 43.9165 43.916Z" stroke="#F1F1F1" stroke-width="3" stroke-miterlimit="10" stroke-linecap="round" stroke-linejoin="round"/>
<path d="M15.5 33.584V43.9173" stroke="#F1F1F1" stroke-width="3" stroke-miterlimit="10" stroke-linecap="round" stroke-linejoin="round"/>
<path d="M25.8335 49.0827V12.916C25.8335 7.74935 28.4168 5.16602 33.5835 5.16602H49.0835C54.2502 5.16602 56.8335 7.74935 56.8335 12.916V49.0827C56.8335 54.2494 54.2502 56.8327 49.0835 56.8327H33.5835C28.4168 56.8327 25.8335 54.2494 25.8335 49.0827Z" stroke="#F1F1F1" stroke-width="3" stroke-miterlimit="10" stroke-linecap="round" stroke-linejoin="round"/>
</svg>
