<svg width="42" height="42" viewBox="0 0 42 42" fill="none" xmlns="http://www.w3.org/2000/svg">
<path d="M0 21C0 9.40202 9.40202 0 21 0C32.598 0 42 9.40202 42 21C42 32.598 32.598 42 21 42C9.40202 42 0 32.598 0 21Z" fill="white"/>
<path d="M21 10.25C26.93 10.25 31.75 15.07 31.75 21C31.75 26.93 26.93 31.75 21 31.75C15.07 31.75 10.25 26.93 10.25 21C10.25 15.07 15.07 10.25 21 10.25ZM21 30.25C26.1 30.25 30.25 26.1 30.25 21C30.25 15.9 26.1 11.75 21 11.75C15.9 11.75 11.75 15.9 11.75 21C11.75 26.1 15.9 30.25 21 30.25Z" fill="#292D32"/>
<path d="M18.5 20.25H24.5C24.91 20.25 25.25 20.59 25.25 21C25.25 21.41 24.91 21.75 24.5 21.75H18.5C18.09 21.75 17.75 21.41 17.75 21C17.75 20.59 18.09 20.25 18.5 20.25Z" fill="#292D32"/>
<path d="M20.5001 17.2505C20.6901 17.2505 20.8801 17.3205 21.0301 17.4705C21.3201 17.7605 21.3201 18.2405 21.0301 18.5305L18.5601 21.0005L21.0301 23.4705C21.3201 23.7605 21.3201 24.2405 21.0301 24.5305C20.7401 24.8205 20.2601 24.8205 19.9701 24.5305L16.9701 21.5305C16.6801 21.2405 16.6801 20.7605 16.9701 20.4705L19.9701 17.4705C20.1201 17.3205 20.3101 17.2505 20.5001 17.2505Z" fill="#292D32"/>
</svg>
