<svg width="62" height="62" viewBox="0 0 62 62" fill="none" xmlns="http://www.w3.org/2000/svg">
<path d="M56.8332 23.2494C56.8332 10.3327 51.6665 5.16602 38.7498 5.16602H23.2498C10.3332 5.16602 5.1665 10.3327 5.1665 23.2494V38.7494C5.1665 51.666 10.3332 56.8327 23.2498 56.8327H38.7498C51.6665 56.8327 56.8332 51.666 56.8332 38.7494V33.5052" stroke="#F4F4F4" stroke-width="3" stroke-linecap="round" stroke-linejoin="round"/>
<path d="M18.0835 12.8902V6.30273" stroke="#F4F4F4" stroke-width="3" stroke-linecap="round" stroke-linejoin="round"/>
<path d="M43.9168 6.30273V32.0844C43.9168 37.1736 40.2743 39.1627 35.8052 36.4761L32.3952 34.4352C31.6202 33.9702 30.3802 33.9702 29.6052 34.4352L26.1952 36.4761C21.726 39.1369 18.0835 37.1736 18.0835 32.0844V23.2494" stroke="#F4F4F4" stroke-width="3" stroke-linecap="round" stroke-linejoin="round"/>
</svg>
