<svg width="62" height="62" viewBox="0 0 62 62" fill="none" xmlns="http://www.w3.org/2000/svg">
<path d="M22.3975 37.0184C22.3975 40.3509 24.955 43.0376 28.1325 43.0376H34.6166C37.3808 43.0376 39.6283 40.6868 39.6283 37.7934C39.6283 34.6418 38.2591 33.5309 36.2183 32.8076L25.8075 29.1909C23.7666 28.4676 22.3975 27.3568 22.3975 24.2051C22.3975 21.3118 24.645 18.9609 27.4091 18.9609H33.8933C37.0708 18.9609 39.6283 21.6476 39.6283 24.9801" stroke="white" stroke-width="3" stroke-linecap="round" stroke-linejoin="round"/>
<path d="M31 15.5V46.5" stroke="white" stroke-width="3" stroke-linecap="round" stroke-linejoin="round"/>
<path d="M10.3332 15.4993C7.104 19.8135 5.1665 25.1869 5.1665 30.9994C5.1665 45.2594 16.7398 56.8327 30.9998 56.8327C45.2598 56.8327 56.8332 45.2594 56.8332 30.9994C56.8332 16.7393 45.2598 5.16602 30.9998 5.16602C27.3057 5.16602 23.7665 5.94102 20.589 7.36185" stroke="white" stroke-width="3" stroke-linecap="round" stroke-linejoin="round"/>
</svg>
