<svg width="12" height="13" viewBox="0 0 12 13" fill="none" xmlns="http://www.w3.org/2000/svg">
<path d="M9.03506 5.6607C8.94006 5.6607 8.84506 5.6257 8.77006 5.5507L6.00006 2.7807L3.23006 5.5507C3.08506 5.6957 2.84506 5.6957 2.70006 5.5507C2.55506 5.4057 2.55506 5.1657 2.70006 5.0207L5.73506 1.9857C5.88006 1.8407 6.12006 1.8407 6.26506 1.9857L9.30006 5.0207C9.44506 5.1657 9.44506 5.4057 9.30006 5.5507C9.23006 5.6257 9.13006 5.6607 9.03506 5.6607Z" fill="#14AE5C"/>
<path d="M6 11.1259C5.795 11.1259 5.625 10.9559 5.625 10.7509V2.33594C5.625 2.13094 5.795 1.96094 6 1.96094C6.205 1.96094 6.375 2.13094 6.375 2.33594V10.7509C6.375 10.9559 6.205 11.1259 6 11.1259Z" fill="#14AE5C"/>
</svg>
