<svg width="5" height="15" viewBox="0 0 5 15" fill="none" xmlns="http://www.w3.org/2000/svg">
<path d="M4.8125 12.5625C4.8125 13.793 3.82812 14.75 2.625 14.75C1.39453 14.75 0.4375 13.793 0.4375 12.5625C0.4375 11.3594 1.39453 10.375 2.625 10.375C3.82812 10.375 4.8125 11.3594 4.8125 12.5625ZM0.683594 1.46094C0.65625 1.07812 0.957031 0.75 1.33984 0.75H3.88281C4.26562 0.75 4.56641 1.07812 4.53906 1.46094L4.18359 8.89844C4.15625 9.22656 3.85547 9.5 3.52734 9.5H1.69531C1.36719 9.5 1.06641 9.22656 1.03906 8.89844L0.683594 1.46094Z" fill="white"/>
</svg>
