<svg width="25" height="24" viewBox="0 0 25 24" fill="none" xmlns="http://www.w3.org/2000/svg">
<path d="M12.6 16.3299C10.21 16.3299 8.27002 14.3899 8.27002 11.9999C8.27002 9.60992 10.21 7.66992 12.6 7.66992C14.99 7.66992 16.93 9.60992 16.93 11.9999C16.93 14.3899 14.99 16.3299 12.6 16.3299ZM12.6 9.16992C11.04 9.16992 9.77002 10.4399 9.77002 11.9999C9.77002 13.5599 11.04 14.8299 12.6 14.8299C14.16 14.8299 15.43 13.5599 15.43 11.9999C15.43 10.4399 14.16 9.16992 12.6 9.16992Z" fill="#FEFEFE"/>
<path d="M12.6002 21.0205C8.84018 21.0205 5.29018 18.8205 2.85018 15.0005C1.79018 13.3505 1.79018 10.6605 2.85018 9.00047C5.30018 5.18047 8.85018 2.98047 12.6002 2.98047C16.3502 2.98047 19.9002 5.18047 22.3402 9.00047C23.4002 10.6505 23.4002 13.3405 22.3402 15.0005C19.9002 18.8205 16.3502 21.0205 12.6002 21.0205ZM12.6002 4.48047C9.37018 4.48047 6.28018 6.42047 4.12018 9.81047C3.37018 10.9805 3.37018 13.0205 4.12018 14.1905C6.28018 17.5805 9.37018 19.5205 12.6002 19.5205C15.8302 19.5205 18.9202 17.5805 21.0802 14.1905C21.8302 13.0205 21.8302 10.9805 21.0802 9.81047C18.9202 6.42047 15.8302 4.48047 12.6002 4.48047Z" fill="#FEFEFE"/>
</svg>
