<svg width="25" height="24" viewBox="0 0 25 24" fill="none" xmlns="http://www.w3.org/2000/svg">
<path d="M17.94 9.06063C16.17 9.06063 14.73 7.62062 14.73 5.85062C14.73 4.08062 16.17 2.64062 17.94 2.64062C19.71 2.64062 21.15 4.08062 21.15 5.85062C21.15 7.62062 19.71 9.06063 17.94 9.06063ZM17.94 4.13063C17 4.13063 16.23 4.90062 16.23 5.84063C16.23 6.78062 17 7.55062 17.94 7.55062C18.88 7.55062 19.65 6.78062 19.65 5.84063C19.65 4.90062 18.88 4.13063 17.94 4.13063Z" fill="white"/>
<path d="M6.85991 9.06063C5.08991 9.06063 3.6499 7.62062 3.6499 5.85062C3.6499 4.08062 5.08991 2.64062 6.85991 2.64062C8.62991 2.64062 10.0699 4.08062 10.0699 5.85062C10.0699 7.62062 8.62991 9.06063 6.85991 9.06063ZM6.85991 4.13063C5.91991 4.13063 5.1499 4.90062 5.1499 5.84063C5.1499 6.78062 5.91991 7.55062 6.85991 7.55062C7.79991 7.55062 8.5699 6.78062 8.5699 5.84063C8.5699 4.90062 7.80991 4.13063 6.85991 4.13063Z" fill="white"/>
<path d="M17.94 21.3692C16.17 21.3692 14.73 19.9292 14.73 18.1592C14.73 16.3892 16.17 14.9492 17.94 14.9492C19.71 14.9492 21.15 16.3892 21.15 18.1592C21.15 19.9292 19.71 21.3692 17.94 21.3692ZM17.94 16.4392C17 16.4392 16.23 17.2092 16.23 18.1492C16.23 19.0892 17 19.8592 17.94 19.8592C18.88 19.8592 19.65 19.0892 19.65 18.1492C19.65 17.2092 18.88 16.4392 17.94 16.4392Z" fill="white"/>
<path d="M6.85991 21.3692C5.08991 21.3692 3.6499 19.9292 3.6499 18.1592C3.6499 16.3892 5.08991 14.9492 6.85991 14.9492C8.62991 14.9492 10.0699 16.3892 10.0699 18.1592C10.0699 19.9292 8.62991 21.3692 6.85991 21.3692ZM6.85991 16.4392C5.91991 16.4392 5.1499 17.2092 5.1499 18.1492C5.1499 19.0892 5.91991 19.8592 6.85991 19.8592C7.79991 19.8592 8.5699 19.0892 8.5699 18.1492C8.5699 17.2092 7.80991 16.4392 6.85991 16.4392Z" fill="white"/>
</svg>
