<svg width="16" height="16" viewBox="0 0 16 16" fill="none" xmlns="http://www.w3.org/2000/svg">
<path d="M8.66634 9.83398H1.33301C1.05967 9.83398 0.833008 9.60732 0.833008 9.33398V4.00065C0.833008 2.25398 2.25301 0.833984 3.99967 0.833984H9.99967C10.273 0.833984 10.4997 1.06065 10.4997 1.33398V8.00065C10.4997 9.01398 9.67968 9.83398 8.66634 9.83398ZM1.83301 8.83398H8.66634C9.12634 8.83398 9.49967 8.46065 9.49967 8.00065V1.83398H3.99967C2.80634 1.83398 1.83301 2.80732 1.83301 4.00065V8.83398Z" fill="white"/>
<path d="M12.6663 13.834H11.9997C11.7263 13.834 11.4997 13.6073 11.4997 13.334C11.4997 12.874 11.1263 12.5007 10.6663 12.5007C10.2063 12.5007 9.83301 12.874 9.83301 13.334C9.83301 13.6073 9.60634 13.834 9.33301 13.834H6.66634C6.39301 13.834 6.16634 13.6073 6.16634 13.334C6.16634 12.874 5.79301 12.5007 5.33301 12.5007C4.87301 12.5007 4.49967 12.874 4.49967 13.334C4.49967 13.6073 4.27301 13.834 3.99967 13.834H3.33301C1.95301 13.834 0.833008 12.714 0.833008 11.334V9.33398C0.833008 9.06065 1.05967 8.83398 1.33301 8.83398H8.66634C9.12634 8.83398 9.49967 8.46065 9.49967 8.00065V3.33398C9.49967 3.06065 9.72634 2.83398 9.99967 2.83398H11.2263C11.8863 2.83398 12.493 3.18733 12.8197 3.76066L13.9597 5.75399C14.0463 5.90732 14.0463 6.10065 13.9597 6.25399C13.873 6.40732 13.7063 6.50065 13.5263 6.50065H12.6663C12.573 6.50065 12.4997 6.57398 12.4997 6.66732V8.66732C12.4997 8.76065 12.573 8.83398 12.6663 8.83398H14.6663C14.9397 8.83398 15.1663 9.06065 15.1663 9.33398V11.334C15.1663 12.714 14.0463 13.834 12.6663 13.834ZM12.433 12.834H12.6663C13.493 12.834 14.1663 12.1607 14.1663 11.334V9.83398H12.6663C12.0263 9.83398 11.4997 9.30732 11.4997 8.66732V6.66732C11.4997 6.02732 12.0197 5.50065 12.6663 5.50065L11.953 4.25399C11.8063 3.99399 11.5263 3.83398 11.2263 3.83398H10.4997V8.00065C10.4997 9.01398 9.67967 9.83398 8.66634 9.83398H1.83301V11.334C1.83301 12.1607 2.50634 12.834 3.33301 12.834H3.56634C3.78635 12.0673 4.49301 11.5007 5.33301 11.5007C6.17301 11.5007 6.87967 12.0673 7.09967 12.834H8.90633C9.12633 12.0673 9.83301 11.5007 10.673 11.5007C11.513 11.5007 12.213 12.0673 12.433 12.834Z" fill="white"/>
<path d="M5.33333 15.1667C4.32 15.1667 3.5 14.3467 3.5 13.3333C3.5 12.32 4.32 11.5 5.33333 11.5C6.34667 11.5 7.16667 12.32 7.16667 13.3333C7.16667 14.3467 6.34667 15.1667 5.33333 15.1667ZM5.33333 12.5C4.87333 12.5 4.5 12.8733 4.5 13.3333C4.5 13.7933 4.87333 14.1667 5.33333 14.1667C5.79333 14.1667 6.16667 13.7933 6.16667 13.3333C6.16667 12.8733 5.79333 12.5 5.33333 12.5Z" fill="white"/>
<path d="M10.6663 15.1667C9.65301 15.1667 8.83301 14.3467 8.83301 13.3333C8.83301 12.32 9.65301 11.5 10.6663 11.5C11.6797 11.5 12.4997 12.32 12.4997 13.3333C12.4997 14.3467 11.6797 15.1667 10.6663 15.1667ZM10.6663 12.5C10.2063 12.5 9.83301 12.8733 9.83301 13.3333C9.83301 13.7933 10.2063 14.1667 10.6663 14.1667C11.1263 14.1667 11.4997 13.7933 11.4997 13.3333C11.4997 12.8733 11.1263 12.5 10.6663 12.5Z" fill="white"/>
<path d="M14.6667 9.83333H12.6667C12.0267 9.83333 11.5 9.30667 11.5 8.66667V6.66667C11.5 6.02667 12.0267 5.5 12.6667 5.5H13.5267C13.7067 5.5 13.8733 5.59334 13.96 5.75334L15.1 7.75334C15.14 7.82667 15.1667 7.91333 15.1667 8V9.33333C15.1667 9.60667 14.94 9.83333 14.6667 9.83333ZM12.6667 6.5C12.5733 6.5 12.5 6.57333 12.5 6.66667V8.66667C12.5 8.76 12.5733 8.83333 12.6667 8.83333H14.1667V8.13334L13.2333 6.5H12.6667Z" fill="white"/>
</svg>
